[Header]                  # Header keywords are followed by a single value
FileType htr              # single word string
DataType HTRS             # Hierarchical translations followed by rotations and Scale
FileVersion 1             # integer
NumSegments   22        # integer
NumFrames  7          # integer
DataFrameRate    60      # integer
EulerRotationOrder ZYX    # one word string
CalibrationUnits mm   # one word string
RotationUnits Degrees     # one word string
GlobalAxisofGravity Y        # character, X or Y or Z
BoneLengthAxis Y
ScaleFactor 1.0000
[SegmentNames&Hierarchy]
#CHILD         PARENT
LowerTorso	GLOBAL
MidTorso1	LowerTorso
MidTorso2	MidTorso1
UpperTorso	MidTorso2
Neck	UpperTorso
Head	Neck
LCollar	UpperTorso
LUpArm	LCollar
LLowArm	LUpArm
LHand	LLowArm
RCollar	UpperTorso
RUpArm	RCollar
RLowArm	RUpArm
RHand	RLowArm
RThigh	LowerTorso
RLowLeg	RThigh
RFoot	RLowLeg
RToe	RFoot
LThigh	LowerTorso
LLowLeg	LThigh
LFoot	LLowLeg
LToe	LFoot
[BasePosition]
#SegmentName Tx, Ty, Tz, Rx, Ry, Rz, BoneLength
LowerTorso	245.857281	950.546486	248.637529	3.098927	-0.002210	0.042162	59.711333	
MidTorso1	0.000000	59.711333	0.000000	12.937915	-0.002675	-0.030860	59.789096	
MidTorso2	0.000000	59.789096	0.000000	-8.588562	0.003459	0.011437	83.428957	
UpperTorso	0.000000	83.428957	0.000000	-7.932331	-0.001012	-0.030752	241.957510	
Neck	0.000000	241.957510	0.000000	-0.094097	0.000027	0.097203	231.829248	
Head	0.000000	231.829248	0.000000	90.077927	-0.000108	-0.089730	91.574582	
LCollar	6.813599	237.360039	0.023153	2.387721	-0.015547	-90.013255	183.371476	
LUpArm	0.000000	183.371476	0.000000	5.326590	-0.698152	6.338799	275.550262	
LLowArm	0.000000	275.550262	0.000000	0.023606	-0.000027	0.019344	209.826044	
LHand	0.000000	209.826044	0.000000	0.056212	0.000012	-0.012212	145.298309	
RCollar	-7.320367	237.102711	-0.039007	12.450709	0.004248	90.115141	167.861514	
RUpArm	0.000000	167.861514	0.000000	-6.122028	-0.820027	-2.646363	291.470253	
RLowArm	0.000000	291.470253	0.000000	0.000001	0.000000	-0.000274	217.757286	
RHand	0.000000	217.757286	0.000000	0.000373	0.000000	0.000511	137.536656	
RThigh	-124.450736	-52.205152	84.621319	5.924306	0.309605	177.207098	421.029795	
RLowLeg	0.000000	421.029795	0.000000	-15.759515	-0.017515	3.120486	365.105663	
RFoot	0.000000	365.105663	0.000000	55.897303	0.149984	-4.373210	148.323736	
RToe	0.000000	148.323736	0.000000	45.100933	2.167436	3.449341	115.306227	
LThigh	124.374466	-52.388373	84.621456	5.928259	-0.221338	-178.140447	426.796764	
LLowLeg	0.000000	426.796764	0.000000	-15.759694	0.017551	-3.120303	361.153822	
LFoot	0.000000	361.153822	0.000000	55.897848	-0.150027	4.373120	146.718976	
LToe	0.000000	146.718976	0.000000	45.100748	-2.167253	-3.449489	114.060784	
#Beginning of Data. Separated by tabs
[LowerTorso]
#Fr     Tx      Ty      Tz      Rx      Ry      Rz      SF
928	51.554218	-119.818245	107.628677	-14.659179	-17.221571	1.180923	1.000000	
929	60.046688	-118.584946	85.257599	-13.150123	-20.735426	2.747371	1.000000	
930	68.245125	-116.912338	63.231434	-11.662315	-23.757639	4.093301	1.000000	
931	71.235840	-115.964783	43.491142	-12.049566	-26.152580	4.201502	1.000000	
932	78.422264	-112.649376	23.906240	-11.016011	-28.569052	4.763061	1.000000	
933	85.138542	-108.514977	5.869930	-10.413655	-30.791639	4.968796	1.000000	
934	90.087975	-103.776009	-10.419376	-9.946971	-33.135834	4.900867	1.000000	
[MidTorso1]
#Fr     Tx      Ty      Tz      Rx      Ry      Rz      SF
928	0.000000	0.000000	0.000000	0.199414	-4.919476	4.709344	1.000000	
929	0.000000	0.000000	0.000000	0.434990	-4.297921	4.315076	1.000000	
930	0.000000	0.000000	0.000000	0.628862	-3.748158	3.956608	1.000000	
931	0.000000	0.000000	0.000000	1.408737	-3.527293	3.883451	1.000000	
932	0.000000	0.000000	0.000000	1.736717	-2.958848	3.833627	1.000000	
933	0.000000	0.000000	0.000000	2.242017	-2.393852	3.927555	1.000000	
934	0.000000	0.000000	0.000000	2.764867	-1.802255	4.065623	1.000000	
[MidTorso2]
#Fr     Tx      Ty      Tz      Rx      Ry      Rz      SF
928	0.000000	0.000000	0.000000	0.209799	-5.567034	3.922016	1.000000	
929	0.000000	0.000000	0.000000	0.440908	-4.893761	3.625117	1.000000	
930	0.000000	0.000000	0.000000	0.631578	-4.296777	3.352816	1.000000	
931	0.000000	0.000000	0.000000	1.409724	-4.067646	3.313531	1.000000	
932	0.000000	0.000000	0.000000	1.732642	-3.498212	3.349305	1.000000	
933	0.000000	0.000000	0.000000	2.232456	-2.953648	3.526682	1.000000	
934	0.000000	0.000000	0.000000	2.749990	-2.389352	3.751593	1.000000	
[UpperTorso]
#Fr     Tx      Ty      Tz      Rx      Ry      Rz      SF
928	0.000000	0.000000	0.000000	0.238848	-6.054505	3.114850	1.000000	
929	0.000000	0.000000	0.000000	0.462450	-5.346675	2.914262	1.000000	
930	0.000000	0.000000	0.000000	0.647378	-4.717794	2.727314	1.000000	
931	0.000000	0.000000	0.000000	1.423106	-4.485034	2.720217	1.000000	
932	0.000000	0.000000	0.000000	1.739691	-3.925822	2.834586	1.000000	
933	0.000000	0.000000	0.000000	2.233126	-3.410654	3.085726	1.000000	
934	0.000000	0.000000	0.000000	2.744324	-2.882468	3.386590	1.000000	
[Neck]
#Fr     Tx      Ty      Tz      Rx      Ry      Rz      SF
928	0.000000	0.000000	0.000000	-40.766659	-15.331595	20.329952	1.000000	
929	0.000000	0.000000	0.000000	-38.840782	-18.029694	20.053907	1.000000	
930	0.000000	0.000000	0.000000	-36.928543	-21.643368	19.146189	1.000000	
931	0.000000	0.000000	0.000000	-31.649097	-23.400148	13.706955	1.000000	
932	0.000000	0.000000	0.000000	-29.841993	-28.230242	11.955273	1.000000	
933	0.000000	0.000000	0.000000	-28.226271	-33.318855	10.415009	1.000000	
934	0.000000	0.000000	0.000000	-25.392044	-36.287354	7.970599	1.000000	
[Head]
#Fr     Tx      Ty      Tz      Rx      Ry      Rz      SF
928	0.000000	0.000000	0.000000	27.195639	6.117698	1.949065	1.000000	
929	0.000000	0.000000	0.000000	25.898331	6.537692	1.113302	1.000000	
930	0.000000	0.000000	0.000000	24.329445	6.943846	0.128995	1.000000	
931	0.000000	0.000000	0.000000	21.360571	10.344150	3.051263	1.000000	
932	0.000000	0.000000	0.000000	19.484650	10.720945	1.983135	1.000000	
933	0.000000	0.000000	0.000000	18.068316	11.324902	1.114287	1.000000	
934	0.000000	0.000000	0.000000	16.339106	12.888973	2.572279	1.000000	
[LCollar]
#Fr     Tx      Ty      Tz      Rx      Ry      Rz      SF
928	0.000000	0.000000	0.000000	6.077194	0.266581	-2.502310	1.000000	
929	0.000000	0.000000	0.000000	5.183656	0.169174	-1.864176	1.000000	
930	0.000000	0.000000	0.000000	4.545186	0.113370	-1.425864	1.000000	
931	0.000000	0.000000	0.000000	3.875097	0.179567	-2.649029	1.000000	
932	0.000000	0.000000	0.000000	4.033249	0.202930	-2.875559	1.000000	
933	0.000000	0.000000	0.000000	4.427006	0.253248	-3.267478	1.000000	
934	0.000000	0.000000	0.000000	4.334836	0.283873	-3.739526	1.000000	
[LUpArm]
#Fr     Tx      Ty      Tz      Rx      Ry      Rz      SF
928	0.000000	0.000000	0.000000	7.489784	17.091261	-32.062649	1.000000	
929	0.000000	0.000000	0.000000	8.573248	15.471411	-27.534470	1.000000	
930	0.000000	0.000000	0.000000	9.450836	13.424030	-23.648188	1.000000	
931	0.000000	0.000000	0.000000	10.870511	12.491612	-16.715588	1.000000	
932	0.000000	0.000000	0.000000	11.119054	10.079128	-14.362363	1.000000	
933	0.000000	0.000000	0.000000	11.244354	7.640547	-12.799222	1.000000	
934	0.000000	0.000000	0.000000	12.098008	5.828487	-11.488232	1.000000	
[LLowArm]
#Fr     Tx      Ty      Tz      Rx      Ry      Rz      SF
928	0.000000	0.000000	0.000000	93.260941	-0.012256	-0.013052	1.000000	
929	0.000000	0.000000	0.000000	90.951347	-0.012276	-0.012556	1.000000	
930	0.000000	0.000000	0.000000	88.230537	-0.012273	-0.011971	1.000000	
931	0.000000	0.000000	0.000000	84.524193	-0.012225	-0.011176	1.000000	
932	0.000000	0.000000	0.000000	80.943176	-0.012130	-0.010412	1.000000	
933	0.000000	0.000000	0.000000	77.172264	-0.011979	-0.009616	1.000000	
934	0.000000	0.000000	0.000000	73.056282	-0.011754	-0.008761	1.000000	
[LHand]
#Fr     Tx      Ty      Tz      Rx      Ry      Rz      SF
928	0.000000	0.000000	0.000000	12.349246	12.030280	-1.061344	1.000000	
929	0.000000	0.000000	0.000000	11.744896	13.748486	-2.690261	1.000000	
930	0.000000	0.000000	0.000000	11.265057	10.203582	-4.277906	1.000000	
931	0.000000	0.000000	0.000000	9.690286	1.461631	-1.253432	1.000000	
932	0.000000	0.000000	0.000000	9.630327	-4.409392	-1.469035	1.000000	
933	0.000000	0.000000	0.000000	9.506473	-8.081666	-0.245038	1.000000	
934	0.000000	0.000000	0.000000	10.866118	-7.581169	1.805582	1.000000	
[RCollar]
#Fr     Tx      Ty      Tz      Rx      Ry      Rz      SF
928	0.000000	0.000000	0.000000	2.766071	-0.580606	11.846036	1.000000	
929	0.000000	0.000000	0.000000	2.508142	-0.551280	12.389266	1.000000	
930	0.000000	0.000000	0.000000	2.422927	-0.544568	12.660462	1.000000	
931	0.000000	0.000000	0.000000	5.149734	-1.104798	12.076490	1.000000	
932	0.000000	0.000000	0.000000	5.218915	-1.042763	11.268540	1.000000	
933	0.000000	0.000000	0.000000	5.285005	-0.935002	10.004818	1.000000	
934	0.000000	0.000000	0.000000	5.155849	-0.848606	9.321834	1.000000	
[RUpArm]
#Fr     Tx      Ty      Tz      Rx      Ry      Rz      SF
928	0.000000	0.000000	0.000000	49.432728	-12.601630	42.928513	1.000000	
929	0.000000	0.000000	0.000000	49.379604	-12.724128	41.025383	1.000000	
930	0.000000	0.000000	0.000000	49.257797	-12.736708	38.728970	1.000000	
931	0.000000	0.000000	0.000000	46.724411	-11.800470	37.719444	1.000000	
932	0.000000	0.000000	0.000000	46.814396	-12.115982	35.686523	1.000000	
933	0.000000	0.000000	0.000000	47.383011	-12.619223	33.887676	1.000000	
934	0.000000	0.000000	0.000000	48.818043	-13.296869	31.331404	1.000000	
[RLowArm]
#Fr     Tx      Ty      Tz      Rx      Ry      Rz      SF
928	0.000000	0.000000	0.000000	86.152000	0.000180	0.000131	1.000000	
929	0.000000	0.000000	0.000000	87.184601	0.000180	0.000134	1.000000	
930	0.000000	0.000000	0.000000	87.468040	0.000180	0.000135	1.000000	
931	0.000000	0.000000	0.000000	88.543686	0.000181	0.000138	1.000000	
932	0.000000	0.000000	0.000000	86.363464	0.000180	0.000132	1.000000	
933	0.000000	0.000000	0.000000	82.757568	0.000177	0.000122	1.000000	
934	0.000000	0.000000	0.000000	78.164536	0.000174	0.000109	1.000000	
[RHand]
#Fr     Tx      Ty      Tz      Rx      Ry      Rz      SF
928	0.000000	0.000000	0.000000	-2.963680	-3.449040	-17.982777	1.000000	
929	0.000000	0.000000	0.000000	-2.141932	-3.991941	-17.351997	1.000000	
930	0.000000	0.000000	0.000000	-1.336083	-4.117366	-16.398254	1.000000	
931	0.000000	0.000000	0.000000	-4.264268	-2.925497	-16.748072	1.000000	
932	0.000000	0.000000	0.000000	-4.003788	-1.140345	-14.586265	1.000000	
933	0.000000	0.000000	0.000000	-3.984082	1.855799	-11.857673	1.000000	
934	0.000000	0.000000	0.000000	-3.029445	4.434690	-10.369176	1.000000	
[RThigh]
#Fr     Tx      Ty      Tz      Rx      Ry      Rz      SF
928	0.000000	0.000000	0.000000	31.627956	10.286541	11.244612	1.000000	
929	0.000000	0.000000	0.000000	35.114033	14.232474	13.095838	1.000000	
930	0.000000	0.000000	0.000000	38.491230	18.556856	15.512498	1.000000	
931	0.000000	0.000000	0.000000	38.719597	21.739111	18.913311	1.000000	
932	0.000000	0.000000	0.000000	41.507698	24.894857	21.208786	1.000000	
933	0.000000	0.000000	0.000000	43.382538	26.175848	21.993963	1.000000	
934	0.000000	0.000000	0.000000	43.834602	23.665253	20.136866	1.000000	
[RLowLeg]
#Fr     Tx      Ty      Tz      Rx      Ry      Rz      SF
928	0.000000	0.000000	0.000000	-37.028217	0.000025	-0.000013	1.000000	
929	0.000000	0.000000	0.000000	-34.912945	0.000023	-0.000011	1.000000	
930	0.000000	0.000000	0.000000	-34.013947	0.000023	-0.000011	1.000000	
931	0.000000	0.000000	0.000000	-33.338192	0.000023	-0.000011	1.000000	
932	0.000000	0.000000	0.000000	-35.397743	0.000024	-0.000012	1.000000	
933	0.000000	0.000000	0.000000	-38.903046	0.000026	-0.000014	1.000000	
934	0.000000	0.000000	0.000000	-43.810394	0.000028	-0.000016	1.000000	
[RFoot]
#Fr     Tx      Ty      Tz      Rx      Ry      Rz      SF
928	0.000000	0.000000	0.000000	-28.699598	-5.351699	26.841129	1.000000	
929	0.000000	0.000000	0.000000	-28.511744	2.527841	26.057198	1.000000	
930	0.000000	0.000000	0.000000	-23.149340	12.308373	24.330170	1.000000	
931	0.000000	0.000000	0.000000	-23.864674	2.823960	17.590397	1.000000	
932	0.000000	0.000000	0.000000	-19.390823	3.438815	15.420421	1.000000	
933	0.000000	0.000000	0.000000	-16.207197	2.482457	13.439990	1.000000	
934	0.000000	0.000000	0.000000	-9.935449	8.335819	13.572905	1.000000	
[RToe]
#Fr     Tx      Ty      Tz      Rx      Ry      Rz      SF
928	0.000000	0.000000	0.000000	8.633655	0.000003	0.000004	1.000000	
929	0.000000	0.000000	0.000000	9.095171	0.000004	0.000005	1.000000	
930	0.000000	0.000000	0.000000	6.881014	0.000003	0.000003	1.000000	
931	0.000000	0.000000	0.000000	8.817650	0.000003	0.000004	1.000000	
932	0.000000	0.000000	0.000000	6.360476	0.000003	0.000003	1.000000	
933	0.000000	0.000000	0.000000	5.220007	0.000002	0.000003	1.000000	
934	0.000000	0.000000	0.000000	3.055337	0.000001	0.000001	1.000000	
[LThigh]
#Fr     Tx      Ty      Tz      Rx      Ry      Rz      SF
928	0.000000	0.000000	0.000000	-11.335569	-23.020164	2.306464	1.000000	
929	0.000000	0.000000	0.000000	-8.925595	-27.389273	1.108824	1.000000	
930	0.000000	0.000000	0.000000	-5.884462	-31.224588	-0.607015	1.000000	
931	0.000000	0.000000	0.000000	-5.605718	-34.194016	0.425867	1.000000	
932	0.000000	0.000000	0.000000	-2.199446	-35.702858	-1.612936	1.000000	
933	0.000000	0.000000	0.000000	0.895719	-36.035686	-3.330811	1.000000	
934	0.000000	0.000000	0.000000	3.350486	-36.633072	-3.965974	1.000000	
[LLowLeg]
#Fr     Tx      Ty      Tz      Rx      Ry      Rz      SF
928	0.000000	0.000000	0.000000	-45.889462	0.000020	-0.000008	1.000000	
929	0.000000	0.000000	0.000000	-44.975876	0.000019	-0.000008	1.000000	
930	0.000000	0.000000	0.000000	-44.297569	0.000019	-0.000008	1.000000	
931	0.000000	0.000000	0.000000	-43.818813	0.000019	-0.000008	1.000000	
932	0.000000	0.000000	0.000000	-43.510201	0.000019	-0.000008	1.000000	
933	0.000000	0.000000	0.000000	-43.366302	0.000019	-0.000008	1.000000	
934	0.000000	0.000000	0.000000	-43.704296	0.000019	-0.000008	1.000000	
[LFoot]
#Fr     Tx      Ty      Tz      Rx      Ry      Rz      SF
928	0.000000	0.000000	0.000000	6.003726	-11.004831	4.643520	1.000000	
929	0.000000	0.000000	0.000000	8.258285	-10.373680	5.616202	1.000000	
930	0.000000	0.000000	0.000000	10.141665	-10.153350	7.100797	1.000000	
931	0.000000	0.000000	0.000000	10.180620	-8.279768	9.397303	1.000000	
932	0.000000	0.000000	0.000000	10.229341	-9.288559	11.298738	1.000000	
933	0.000000	0.000000	0.000000	9.155879	-10.841962	13.189894	1.000000	
934	0.000000	0.000000	0.000000	8.870655	-13.040832	13.598766	1.000000	
[LToe]
#Fr     Tx      Ty      Tz      Rx      Ry      Rz      SF
928	0.000000	0.000000	0.000000	19.169626	0.000073	0.000009	1.000000	
929	0.000000	0.000000	0.000000	19.350046	0.000074	0.000010	1.000000	
930	0.000000	0.000000	0.000000	19.082174	0.000073	0.000009	1.000000	
931	0.000000	0.000000	0.000000	19.088285	0.000073	0.000009	1.000000	
932	0.000000	0.000000	0.000000	18.749723	0.000072	0.000009	1.000000	
933	0.000000	0.000000	0.000000	18.482859	0.000071	0.000009	1.000000	
934	0.000000	0.000000	0.000000	16.427818	0.000063	0.000006	1.000000	
[EndOfFile]
